<?xml version="1.0" standalone="no"?>
<!DOCTYPE svg PUBLIC "-//W3C//DTD SVG 1.1//EN" "http://www.w3.org/Graphics/SVG/1.1/DTD/svg11.dtd" >
<!--
2013-9-30: Created.
-->
<svg>
    <metadata>
        Created by iconfont
    </metadata>
    <defs>

        <font id="iconfont" horiz-adv-x="1024">
            <font-face
                    font-family="iconfont"
                    font-weight="500"
                    font-stretch="normal"
                    units-per-em="1024"
                    ascent="896"
                    descent="-128"
            />
            <missing-glyph/>

            <glyph glyph-name="wulumuqishigongandashujuguanlipingtai-ico-" unicode="&#59372;"
                   d="M532.48 851.84L128 618.24v-467.84l405.12-233.6 405.12 233.6V618.24z m341.12-625.92l-204.8 118.4a167.04 167.04 0 0 0-40.32-41.6v-8.96l215.04-124.16-279.04-160.64v156.16a89.6 89.6 0 0 0-64 0v-156.16l-279.04 160.64 215.04 124.16v8.96a167.04 167.04 0 0 0-40.32 41.6L192 225.91999999999996v320L364.16 448a167.04 167.04 0 0 0 15.36 64L225.28 600.3199999999999l275.2 158.72v-153.6a160 160 0 0 0 64 0V759.6800000000001l275.2-158.72L684.8 512a167.04 167.04 0 0 0 15.36-64l173.44 99.84zM532.48 545.28a104.32 104.32 0 0 1-32-203.52V256a32 32 0 1 1 64 0V341.76a104.32 104.32 0 0 1-32 203.52z m0-144.64a40.32 40.32 0 1 0 40.32 40.32 40.32 40.32 0 0 0-40.32-40.96z"
                   horiz-adv-x="1024"/>


            <glyph glyph-name="wulumuqishigongandashujuguanlipingtai-ico-1" unicode="&#59373;"
                   d="M532.48-92.79999999999995l-412.8 238.72V622.0799999999999L532.48 860.8l412.8-238.08v-476.8z m-348.8 275.2l348.8-201.6 348.8 201.6v403.2L532.48 786.56 183.68 585.6zM725.12 403.84H604.16a44.8 44.8 0 0 0-44.8 44.8v121.6a44.8 44.8 0 0 0 44.8 44.8h120.96a44.8 44.8 0 0 0 44.8-44.8V448a44.8 44.8 0 0 0-44.8-44.16z m-101.76 64H704v83.2H623.36zM460.8 152.96000000000004H339.2a44.8 44.8 0 0 0-44.8 44.8V320a44.8 44.8 0 0 0 44.8 44.8h121.6a44.8 44.8 0 0 0 44.8-44.8v-121.6a44.8 44.8 0 0 0-44.8-45.44z m-101.76 64H441.6v83.2H358.4zM725.12 152.96000000000004H604.16a44.8 44.8 0 0 0-44.8 44.8V320a44.8 44.8 0 0 0 44.8 44.8h120.96A44.8 44.8 0 0 0 768 320v-121.6a44.8 44.8 0 0 0-42.88-45.44z m-101.76 64H704v83.2H623.36z"
                   horiz-adv-x="1024"/>


            <glyph glyph-name="wulumuqishigongandashujuguanlipingtai-ico-2" unicode="&#59374;"
                   d="M517.76 346.88L314.88 464V698.88l202.88 117.12 203.52-117.12v-234.88zM378.88 501.12l138.88-80.64 139.52 80.64V661.76L517.76 742.4 378.88 661.76zM273.92-64L70.4 50.559999999999945V285.44000000000005l203.52 117.12 203.52-117.12v-234.88zM134.4 87.67999999999995l139.52-80.64 139.52 80.64v160.64L273.92 328.96000000000004 134.4 248.32000000000005zM750.08-64l-203.52 114.56V285.44000000000005l203.52 117.12 203.52-117.12v-234.88z m-139.52 151.68l139.52-80.64 139.52 80.64v160.64l-139.52 80.64-139.52-80.64z"
                   horiz-adv-x="1024"/>


            <glyph glyph-name="wulumuqishigongandashujuguanlipingtai-ico-3" unicode="&#59375;"
                   d="M656 516.48h8.96l21.76-32.64a71.04 71.04 0 0 0 48.64 19.2h4.48l-20.48 32a95.36 95.36 0 0 1 31.36 67.2 90.24 90.24 0 1 1-179.84 0 107.52 107.52 0 0 1 22.4-64l-128-288h-7.04c-13.44 0-22.4-4.48-31.36-4.48L278.4 413.44a90.88 90.88 0 1 1-76.16-40.32 56.96 56.96 0 0 1 26.88 4.48L384 206.08000000000004a64 64 0 0 1-8.96-40.32 90.24 90.24 0 1 1 179.84 0 75.52 75.52 0 0 1-26.88 64zM734.72 439.04a7.68 7.68 0 0 0 5.12 0 7.68 7.68 0 0 1-5.12 0zM980.48 337.91999999999996h-43.52a110.08 110.08 0 0 1-12.8 30.08l28.8 32.64a7.68 7.68 0 0 1 0 10.24l-23.04 23.04a7.68 7.68 0 0 1-5.12 0 7.68 7.68 0 0 1-5.12 0l-32.64-28.8a110.08 110.08 0 0 1-30.08 12.8v43.52a7.68 7.68 0 0 1-7.68 7.04h-32.64a7.68 7.68 0 0 1-7.68-7.04v-43.52a110.08 110.08 0 0 1-30.08-12.8l-32.64 28.8a7.68 7.68 0 0 1-5.12 0 7.68 7.68 0 0 1-5.12 0l-32-19.84a7.68 7.68 0 0 1 0-10.24l28.8-32.64a110.08 110.08 0 0 1-12.8-30.08h-43.52a7.68 7.68 0 0 1-7.04-7.68v-32.64a7.68 7.68 0 0 1 7.04-7.68h43.52a110.08 110.08 0 0 1 12.8-30.08l-28.8-39.04a7.68 7.68 0 0 1 0-10.24l23.04-23.04a7.68 7.68 0 0 1 5.12 0 7.68 7.68 0 0 1 5.12 0l32.64 28.8a110.08 110.08 0 0 1 30.08-12.8v-43.52a7.68 7.68 0 0 1 7.68-7.04h32.64a7.68 7.68 0 0 1 7.68 7.04v43.52a110.08 110.08 0 0 1 30.08 12.8l32.64-28.8a7.68 7.68 0 0 1 5.12 0 7.68 7.68 0 0 1 5.12 0l23.04 23.04a7.68 7.68 0 0 1 0 10.24l-19.2 32a110.08 110.08 0 0 1 12.8 30.08h43.52a7.68 7.68 0 0 1 7.04 7.68v36.48a7.68 7.68 0 0 1-7.68 7.68zM832 256a58.24 58.24 0 1 0 58.24 58.24 58.24 58.24 0 0 0-58.24-58.24z"
                   horiz-adv-x="1024"/>


            <glyph glyph-name="wulumuqishigongandashujuguanlipingtai-ico-4" unicode="&#59376;"
                   d="M590.72 496h-320a32 32 0 0 0 0 64h320a32 32 0 0 0 0-64zM468.48 352h-192a32 32 0 0 0 0 64h192a32 32 0 1 0 0-64zM497.92 225.91999999999996H183.68V677.76h624.64v-177.28a250.88 250.88 0 0 0 64-26.24V696.96a44.8 44.8 0 0 1-44.8 44.8H164.48a44.8 44.8 0 0 1-44.8-44.8v-490.24a44.8 44.8 0 0 1 44.8-44.8h351.36a248.32 248.32 0 0 0-17.92 64zM960 90.88l-64 64a185.6 185.6 0 0 1-282.88 238.08 185.6 185.6 0 0 1 238.08-282.88l64-64a32 32 0 0 1 45.44 45.44z m-302.08 84.48a121.6 121.6 0 1 0 172.16 0 122.24 122.24 0 0 0-172.16 0z"
                   horiz-adv-x="1024"/>


            <glyph glyph-name="wulumuqishigongandashujuguanlipingtai-ico-5" unicode="&#59377;"
                   d="M760.32 546.56m-40.32 0a40.32 40.32 0 1 1 80.64 0 40.32 40.32 0 1 1-80.64 0ZM776.32 372.48l-100.48 99.84-153.6-153.6-178.56 177.92L129.28 281.6l44.8-44.8 169.6 169.6 178.56-178.56 153.6 154.24 100.48-99.84V372.48zM119.68 714.88v-597.12h784.64V714.88z m720.64-533.12H183.68V650.88h656.64z"
                   horiz-adv-x="1024"/>


            <glyph glyph-name="wulumuqishigongandashujuguanlipingtai-ico-6" unicode="&#59378;"
                   d="M931.84 298.24l-487.68 30.08 115.84 475.52 30.72-6.4a437.76 437.76 0 0 0 344.32-467.84z m-407.68 89.6l348.16-21.76a373.12 373.12 0 0 1-265.6 360.96zM824.96 304.64a336.64 336.64 0 1 0-291.84 396.8l15.36 64a401.28 401.28 0 1 1 339.2-460.8z"
                   horiz-adv-x="1024"/>


            <glyph glyph-name="wulumuqishigongandashujuguanlipingtai-ico-7" unicode="&#59379;"
                   d="M865.92 55.67999999999995H168.32V640h64v-520.32h633.6v-64zM885.12 547.8399999999999l-154.88-41.6 33.92-33.92-169.6-170.24L435.2 461.44 237.44 263.67999999999995l45.44-45.44L435.2 370.55999999999995l159.36-158.72 215.04 215.04 33.92-33.92 41.6 154.88z"
                   horiz-adv-x="1024"/>


            <glyph glyph-name="wulumuqishigongandashujuguanlipingtai-ico-8" unicode="&#59380;"
                   d="M832 695.04a32 32 0 0 1-32-32V339.20000000000005l-131.84 23.68-55.04-55.04 213.76-38.4a32.64 32.64 0 0 1 26.24 7.04 32 32 0 0 1 11.52 24.32V663.04a32 32 0 0 1-32.64 32zM798.72 663.04a32 32 0 0 0 9.6 22.4l-636.16-635.52a32 32 0 1 1 45.44-45.44l581.12 581.12zM227.2 104.32000000000005V376.96000000000004L384 349.44000000000005l55.04 55.04L200.96 448a33.28 33.28 0 0 1-26.24-7.04 32 32 0 0 1-11.52-24.32v-388.48a32 32 0 0 0 9.6 22.4z"
                   horiz-adv-x="1024"/>


            <glyph glyph-name="wulumuqishigongandashujuguanlipingtai-ico-9" unicode="&#59381;"
                   d="M942.72 6.399999999999977H122.24V690.56h820.48z m-756.48 64h692.48V626.56H186.24zM718.72 481.92l-45.44-45.44 88.32-87.68-88.32-88.32 45.44-45.44 133.76 133.76-133.76 133.12zM341.76 481.92L208 348.79999999999995l133.76-133.76 44.8 45.44-87.68 88.32 87.68 87.68-44.8 45.44zM402.368 266.36800000000005L612.8 476.8l45.248-45.248-210.432-210.432z"
                   horiz-adv-x="1024"/>


            <glyph glyph-name="wulumuqishigongandashujuguanlipingtai-ico-10" unicode="&#59382;"
                   d="M832 252.79999999999995a146.56 146.56 0 0 1 78.08 120.96A145.92 145.92 0 0 1 832 494.08l-35.2-53.12c18.56-12.16 49.28-37.76 49.28-67.84s-26.88-52.48-49.28-67.84A547.2 547.2 0 0 0 512 238.08000000000004a547.2 547.2 0 0 0-287.36 67.84c-22.4 15.36-49.28 39.04-49.28 67.84s30.72 55.04 49.28 67.84L192 494.08a145.92 145.92 0 0 1-80.64-120.96A146.56 146.56 0 0 1 192 252.79999999999995a611.2 611.2 0 0 1 320-78.72 611.2 611.2 0 0 1 320 78.72M867.84 279.03999999999996a233.6 233.6 0 0 0-32.64-26.88l-19.84-11.52a80 80 0 0 0 33.92-55.68c0-64-138.24-135.68-336.64-135.68s-336.64 71.68-336.64 135.68a80 80 0 0 0 33.92 55.68L192 252.79999999999995a233.6 233.6 0 0 0-32.64 26.88 128 128 0 0 1-44.8-94.08c0-113.92 172.16-199.68 400.64-199.68s400.64 85.76 400.64 199.68a128 128 0 0 1-48 93.44zM192 440.96a611.84 611.84 0 0 1 320-78.72 611.84 611.84 0 0 1 320 78.72m0 0a146.56 146.56 0 0 1 78.08 120.96C912.64 675.84 740.48 761.6 512 761.6S111.36 675.84 111.36 561.9200000000001A146.56 146.56 0 0 1 192 440.96m609.92 53.12A547.84 547.84 0 0 0 512 426.24a547.84 547.84 0 0 0-287.36 67.84c-18.56 12.16-49.28 37.76-49.28 67.84 0 64 138.24 135.68 336.64 135.68s336.64-71.68 336.64-135.68c0-30.08-30.72-55.04-49.28-67.84z"
                   horiz-adv-x="1024"/>


            <glyph glyph-name="wulumuqishigongandashujuguanlipingtai-ico-11" unicode="&#59383;"
                   d="M264.96 631.04m-24.96 0a24.96 24.96 0 1 1 49.92 0 24.96 24.96 0 1 1-49.92 0ZM264.96 346.24m-24.96 0a24.96 24.96 0 1 1 49.92 0 24.96 24.96 0 1 1-49.92 0ZM512 23.67999999999995m-51.2 0a51.2 51.2 0 1 1 102.4 0 51.2 51.2 0 1 1-102.4 0ZM111.36 757.12v-252.16h801.28V757.12z m737.28-188.16H175.36V693.12h673.28zM111.36 220.15999999999997h801.28V472.32H111.36z m64 188.16h673.28v-124.16H175.36zM143.36 55.67999999999995v-64H435.2a82.56 82.56 0 0 0 0 64zM595.2 23.67999999999995a82.56 82.56 0 0 0-6.4-32h291.84v64H588.8a82.56 82.56 0 0 0 6.4-32zM480 100.48000000000002a82.56 82.56 0 0 0 64 0V192h-64z"
                   horiz-adv-x="1024"/>


            <glyph glyph-name="wulumuqishigongandashujuguanlipingtai-ico-12" unicode="&#59384;"
                   d="M92.16 748.8v-710.4H896V748.8zM832 102.39999999999998H156.16V496H832zM156.16 568.3199999999999V684.8H832v-116.48zM245.76 622.0799999999999m-24.96 0a24.96 24.96 0 1 1 49.92 0 24.96 24.96 0 1 1-49.92 0ZM655.36 320h-43.52a110.08 110.08 0 0 1-12.8 30.08l28.8 32.64a7.68 7.68 0 0 1 0 10.24l-23.04 23.04a7.68 7.68 0 0 1-5.12 0 7.68 7.68 0 0 1-5.12 0l-32.64-28.8a110.08 110.08 0 0 1-30.08 12.8v43.52a7.68 7.68 0 0 1-7.68 7.04h-35.84a7.68 7.68 0 0 1-7.68-2.56v-43.52a110.08 110.08 0 0 1-30.08-12.8l-32.64 28.8a7.68 7.68 0 0 1-5.12 0 7.68 7.68 0 0 1-5.12 0L384 398.08a7.68 7.68 0 0 1 0-10.24l28.8-32.64a110.08 110.08 0 0 1-12.8-30.08L353.92 320a7.68 7.68 0 0 1-7.04-7.68v-30.72a7.68 7.68 0 0 1 7.04-7.68h43.52a110.08 110.08 0 0 1 12.8-30.08l-26.24-35.84a7.68 7.68 0 0 1 0-10.24l23.04-23.04a7.68 7.68 0 0 1 5.12 0 7.68 7.68 0 0 1 5.12 0l30.72 28.16a110.08 110.08 0 0 1 30.08-12.8v-43.52a7.68 7.68 0 0 1 7.68-7.04h32.64a7.68 7.68 0 0 1 7.68 7.04v43.52a110.08 110.08 0 0 1 30.08 12.8l32.64-28.8a7.68 7.68 0 0 1 5.12 0 7.68 7.68 0 0 1 5.12 0l23.04 23.04a7.68 7.68 0 0 1 0 10.24l-28.8 32.64a110.08 110.08 0 0 1 12.8 30.08h43.52a7.68 7.68 0 0 1 7.04 7.68v36.48a7.68 7.68 0 0 1-1.28 5.76z m-151.04-80.64a58.24 58.24 0 1 0 58.24 58.24 58.24 58.24 0 0 0-58.24-58.24z"
                   horiz-adv-x="1024"/>


            <glyph glyph-name="wulumuqishigongandashujuguanlipingtai-ico-13" unicode="&#59385;"
                   d="M103.68 739.2v-710.4h801.28V739.2z m737.28-646.4H167.68V486.4h673.28zM167.68 558.72V675.2h673.28v-116.48zM257.28 612.48m-24.96 0a24.96 24.96 0 1 1 49.92 0 24.96 24.96 0 1 1-49.92 0ZM297.6 400h414.08v-64H297.6zM297.6 263.67999999999995h242.56v-64H297.6z"
                   horiz-adv-x="1024"/>


            <glyph glyph-name="wulumuqishigongandashujuguanlipingtai-ico-14" unicode="&#59386;"
                   d="M783.36 252.79999999999995h-123.52V352h123.52a32 32 0 0 1 0 64h-123.52v49.92a32 32 0 0 1-64 0v-49.92H415.36v49.28a32 32 0 0 1-64 0v-49.28H227.84a32 32 0 1 1 0-64h123.52v-99.2H227.84a32 32 0 1 1 0-64h123.52v-48a32 32 0 0 1 64 0v48h180.48v-47.36a32 32 0 0 1 64 0v47.36h123.52a32 32 0 0 1 0 64z m-187.52 0H415.36V352h180.48zM320 626.56a32 32 0 0 1 32 32V762.88a32 32 0 0 1-64 0v-104.32a32 32 0 0 1 32-32zM691.84 626.56a32 32 0 0 1 32 32V762.88a32 32 0 0 1-64 0v-104.32a32 32 0 0 1 32-32zM415.36 742.4h180.48v-64H415.36zM787.84 742.4v-64h54.4v-99.2H168.96V678.4h54.4v64H104.96v-713.6h801.28V742.4zM168.96 92.79999999999995v422.4h673.28v-422.4z"
                   horiz-adv-x="1024"/>


            <glyph glyph-name="wulumuqishigongandashujuguanlipingtai-ico-15" unicode="&#59387;"
                   d="M940.8 174.08000000000004L708.48 320c-25.6 16-26.24 26.88-26.24 30.72s13.44 17.92 19.84 23.68l6.4 6.4a210.56 210.56 0 0 1 64 164.48 197.76 197.76 0 0 1-176 212.48 147.84 147.84 0 0 1-60.16-13.44 234.88 234.88 0 0 0 50.56-40.32h9.6a144.64 144.64 0 0 0 121.6-159.36 158.72 158.72 0 0 0-46.72-128l-5.76-5.12a90.24 90.24 0 0 1-37.12-64 96 96 0 0 1 51.84-75.52L912 128a15.36 15.36 0 0 0-8.32-28.8h-46.08a124.16 124.16 0 0 0 0-53.76h49.28a69.76 69.76 0 0 1 37.12 128zM772.48 139.51999999999998L540.16 284.79999999999995C512 300.79999999999995 512 311.67999999999995 512 314.88s13.44 17.92 19.84 23.68l6.4 6.4A210.56 210.56 0 0 1 604.16 512a197.76 197.76 0 0 1-176.64 210.56A197.76 197.76 0 0 1 251.52 512a211.2 211.2 0 0 1 64-164.48l6.4-6.4c6.4-5.76 19.84-18.56 19.84-23.68s0-14.08-26.24-30.72l-232.32-147.2a69.76 69.76 0 0 1 37.12-128h615.04a69.76 69.76 0 0 1 37.12 128z m-22.4-64a14.72 14.72 0 0 0-14.72-10.88H120.32a15.36 15.36 0 0 0-8.32 28.8l232.32 145.28a95.36 95.36 0 0 1 51.2 74.88 89.6 89.6 0 0 1-37.12 64L352.64 384a158.72 158.72 0 0 0-47.36 128 144.64 144.64 0 0 0 121.6 159.36A144.64 144.64 0 0 0 549.76 512a158.72 158.72 0 0 0-46.72-128l-5.76-5.12a90.24 90.24 0 0 1-37.12-64A96 96 0 0 1 512 238.72000000000003l232.32-145.28a14.72 14.72 0 0 0 5.76-17.28z"
                   horiz-adv-x="1024"/>


            <glyph glyph-name="wulumuqishigongandashujuguanlipingtai-ico-16" unicode="&#59388;"
                   d="M634.24 451.2H398.08a44.8 44.8 0 0 0-44.8 44.8V732.16a44.8 44.8 0 0 0 44.8 44.8h236.16a44.8 44.8 0 0 0 44.8-44.8v-236.16a44.8 44.8 0 0 0-44.8-44.8z m-216.96 64h197.76V712.96H417.28zM305.28 276.48H69.76a12.8 12.8 0 0 1-12.8-12.8v-236.16a12.8 12.8 0 0 1 12.8-12.8h235.52a12.8 12.8 0 0 1 12.8 12.8V263.67999999999995a12.8 12.8 0 0 1-12.8 12.8zM256 78.72000000000003H120.96v133.76H256zM634.24 276.48H398.08a12.8 12.8 0 0 1-12.8-12.8v-236.16a12.8 12.8 0 0 1 12.8-12.8h236.16a12.8 12.8 0 0 1 12.8 12.8V263.67999999999995a12.8 12.8 0 0 1-12.8 12.8z m-51.2-197.76H448v133.76h135.04zM960 276.48h-233.6a12.8 12.8 0 0 1-12.8-12.8v-236.16a12.8 12.8 0 0 1 12.8-12.8H960a12.8 12.8 0 0 1 12.8 12.8V263.67999999999995a12.8 12.8 0 0 1-12.8 12.8z m-51.2-197.76h-131.2v133.76h133.76zM177.92 411.52h676.48v-64H177.92z"
                   horiz-adv-x="1024"/>


            <glyph glyph-name="wulumuqishigongandashujuguanlipingtai-ico-17" unicode="&#59389;"
                   d="M774.4 259.84000000000003c115.84 28.16 177.28 72.32 177.28 128 0 72.32-103.68 110.72-192 128-8.32 17.92-16 35.2-23.04 53.12l-32.64-10.24 29.44 12.16A243.2 243.2 0 0 0 716.16 640a45.44 45.44 0 0 1-44.8 42.24h-320a45.44 45.44 0 0 1-43.52-42.24 247.04 247.04 0 0 0-19.2-72.32c-7.04-17.92-15.36-35.2-23.04-53.12-88.96-19.84-192-58.24-192-128 0-55.04 64-99.2 177.28-128a1142.4 1142.4 0 0 1 262.4-28.16 1141.12 1141.12 0 0 1 261.76 28.16M348.16 547.2a334.08 334.08 0 0 1 21.76 74.24h284.8a332.8 332.8 0 0 1 21.76-74.24c9.6-23.68 19.84-47.36 30.72-70.4l10.24-22.4a727.04 727.04 0 0 0-409.6 0L320 476.8c10.88 23.68 21.12 46.72 30.72 70.4M759.04 320a1216 1216 0 0 0-494.08 0c-97.28 23.68-128 53.76-128 64s26.24 35.2 100.48 56.96a41.6 41.6 0 0 1 3.84-19.84 53.12 53.12 0 0 1 32-26.88A792.96 792.96 0 0 1 512 360.32000000000005a794.24 794.24 0 0 1 239.36 37.12 53.12 53.12 0 0 1 32 26.88 40.96 40.96 0 0 1 3.84 19.84c74.24-21.76 100.48-46.72 100.48-56.96s-31.36-41.6-128.64-67.2zM774.4 259.84000000000003c-16.64-3.84-34.56-7.68-53.12-10.88A229.76 229.76 0 0 0 512 88.96000000000004a229.76 229.76 0 0 0-209.28 160c-17.92 3.2-35.84 6.4-53.12 10.88l-18.56 5.12A298.88 298.88 0 0 1 512 24.960000000000036a298.88 298.88 0 0 1 280.32 240z"
                   horiz-adv-x="1024"/>


            <glyph glyph-name="wulumuqishigongandashujuguanlipingtai-ico-18" unicode="&#59390;"
                   d="M496-64H486.4C268.16 7.67999999999995 112.64 279.03999999999996 107.52 598.4a32 32 0 0 0 9.6 23.68 28.16 28.16 0 0 0 23.68 8.96h21.12a405.12 405.12 0 0 1 309.12 149.12 32.64 32.64 0 0 0 49.28 0A400 400 0 0 1 832 629.76h20.48a29.44 29.44 0 0 0 23.68-8.96 32 32 0 0 0 9.6-23.68c-5.12-320-160.64-590.72-378.24-660.48z m-320 629.12c10.88-271.36 140.16-501.12 320-565.12 179.2 64 309.12 291.2 320 563.84a465.92 465.92 0 0 0-320 145.92A465.92 465.92 0 0 0 172.8 565.76zM549.12 289.91999999999996h-21.12v44.16a113.28 113.28 0 1 1-64 0v-152.96a32 32 0 1 1 64 0v45.44h21.12a32 32 0 0 1 0 64zM448 442.24a49.28 49.28 0 1 0 49.28-49.28 49.28 49.28 0 0 0-49.28 49.28z"
                   horiz-adv-x="1024"/>


            <glyph glyph-name="wulumuqishigongandashujuguanlipingtai-ico-19" unicode="&#59391;"
                   d="M945.92 128h-43.52a110.08 110.08 0 0 1-12.8 30.08l28.8 32.64a7.68 7.68 0 0 1 0 10.24l-22.4 24.32a7.68 7.68 0 0 1-5.12 0 7.68 7.68 0 0 1-5.12 0l-32.64-28.8a110.08 110.08 0 0 1-30.08 12.8v42.88a7.68 7.68 0 0 1-7.68 7.04h-32.64a7.68 7.68 0 0 1-7.68-7.04v-43.52a109.44 109.44 0 0 1-30.08-12.8l-40.96 29.44a7.68 7.68 0 0 1-5.12 0 7.68 7.68 0 0 1-5.12 0l-23.04-23.04a7.68 7.68 0 0 1 0-10.24l28.8-32.64a110.08 110.08 0 0 1-12.8-30.08h-43.52a7.68 7.68 0 0 1-7.04-7.68v-32.64a8.96 8.96 0 0 1 7.04-7.68h43.52a109.44 109.44 0 0 1 11.52-28.16l-28.8-32.64a7.68 7.68 0 0 1 0-10.24l23.04-23.04a7.68 7.68 0 0 1 5.12 0 7.68 7.68 0 0 1 5.12 0l32.64 28.8a109.44 109.44 0 0 1 30.08-12.8v-43.52a7.68 7.68 0 0 1 7.68-7.04h32.64a7.68 7.68 0 0 1 7.68 7.04v43.52a110.08 110.08 0 0 1 30.08 12.8l32.64-28.8a7.68 7.68 0 0 1 5.12 0 7.68 7.68 0 0 1 5.12 0l23.04 23.04a7.68 7.68 0 0 1 0 10.24l-28.8 32.64a110.08 110.08 0 0 1 12.8 30.08h43.52a7.68 7.68 0 0 1 7.04 7.68v32.64a7.68 7.68 0 0 1 1.92 4.48z m-151.04-81.92a57.6 57.6 0 0 0-55.04 42.88 56.32 56.32 0 0 0 0 15.36 57.6 57.6 0 0 0 52.48 56.96h5.76a58.24 58.24 0 1 0 0-116.48zM695.04 347.52H512V528.64a32 32 0 1 1-64 0v-213.12a32 32 0 0 1 32-32h213.76a32 32 0 0 1 0 64zM398.08 686.08a368 368 0 0 0 166.4 0h7.04a32 32 0 0 1 7.04 64 435.84 435.84 0 0 1-192 0 32 32 0 0 1 14.08-64zM481.28 661.12a345.6 345.6 0 1 1 0-691.2 341.76 341.76 0 0 1 158.72 38.4 39.04 39.04 0 0 0 8.96 24.32l10.88 12.16h-16a39.04 39.04 0 0 0-32 19.2 281.6 281.6 0 1 0 152.32 249.6 266.88 266.88 0 0 0 0-28.16 38.4 38.4 0 0 0 17.28 4.48h32a39.68 39.68 0 0 0 14.08 0v26.24a346.24 346.24 0 0 1-346.24 344.96z"
                   horiz-adv-x="1024"/>


            <glyph glyph-name="wulumuqishigongandashujuguanlipingtai-ico-20" unicode="&#59392;"
                   d="M469.76-24.960000000000036L60.8 384l408.96 408.96 204.8-204.16-45.44-45.44-159.36 159.36L151.04 384l318.72-318.72 159.36 159.36 45.44-45.44-204.8-204.16zM779.52 159.36L554.88 384l224.64 224.64L1004.16 384zM645.76 384l133.76-133.76L913.92 384l-134.4 133.76z"
                   horiz-adv-x="1024"/>


            <glyph glyph-name="wulumuqishigongandashujuguanlipingtai-ico-21" unicode="&#59393;"
                   d="M326.4 286.72a128 128 0 0 1-97.28 128V711.6800000000001a32 32 0 0 1-64 0v-300.8a128 128 0 0 1 0-249.6v-105.6a32 32 0 0 1 64 0v106.24A128 128 0 0 1 326.4 286.72z m-128-64a64 64 0 1 0 64 64 64 64 0 0 0-65.28-65.28zM956.16 286.72a128 128 0 0 1-97.28 128V711.6800000000001a32 32 0 0 1-64 0v-300.8a128 128 0 0 1 0-249.6v-105.6a32 32 0 0 1 64 0v106.24a128 128 0 0 1 97.28 124.8z m-128-64a64 64 0 1 0 64 64 64 64 0 0 0-65.28-65.28zM640 481.28a128 128 0 0 1-97.28 128v102.4a32 32 0 0 1-64 0v-105.6a128 128 0 0 1 0-249.6v-300.8a32 32 0 1 1 64 0v300.8A128 128 0 0 1 640 481.28z m-128-64a64 64 0 1 0 64 64A64 64 0 0 0 512 416z"
                   horiz-adv-x="1024"/>


            <glyph glyph-name="wulumuqishigongandashujuguanlipingtai-ico-22" unicode="&#59394;"
                   d="M960 478.08a135.68 135.68 0 0 1-119.04 45.44A283.52 283.52 0 0 0 768 531.8399999999999a673.92 673.92 0 0 0-155.52 118.4l-20.48 18.56A132.48 132.48 0 0 1 512 704a131.2 131.2 0 0 1-77.44-32.64l-20.48-18.56A673.28 673.28 0 0 0 256 531.8399999999999a284.16 284.16 0 0 0-72.32-8.96 135.68 135.68 0 0 1-119.68-44.8c-53.12-77.44 37.76-177.92 101.76-234.88C183.04 142.72000000000003 327.68 64 512 64s328.96 76.16 344.96 176c64 60.16 154.88 160.64 103.04 238.08zM117.76 441.6c10.24 14.72 31.36 16 68.48 17.28a337.28 337.28 0 0 1 88.96 12.16 634.24 634.24 0 0 1 179.2 131.84l19.84 17.92A71.04 71.04 0 0 0 512 640a68.48 68.48 0 0 0 40.32-16.64l19.84-17.92a640 640 0 0 1 176.64-134.4 337.28 337.28 0 0 1 88.32-12.16c37.12 0 58.88 0 68.48-17.28 17.28-25.6-19.2-85.76-89.6-149.12H207.36c-70.4 63.36-106.88 123.52-89.6 149.12zM512 128c-138.24 0-242.56 46.72-273.92 97.92h547.84C754.56 177.91999999999996 650.24 128 512 128zM602.88 524.1600000000001h-10.88a156.16 156.16 0 0 0-69.12 16 24.96 24.96 0 0 1-22.4 0 156.16 156.16 0 0 0-69.12-16h-10.88a90.24 90.24 0 0 1 23.04-60.16 86.4 86.4 0 0 1-19.84-54.4A87.68 87.68 0 0 1 495.36 320a16.64 16.64 0 0 1 32.64 0 87.68 87.68 0 0 1 71.04 88.32 86.4 86.4 0 0 1-19.84 54.4 90.24 90.24 0 0 1 23.04 60.16z"
                   horiz-adv-x="1024"/>


            <glyph glyph-name="wulumuqishigongandashujuguanlipingtai-ico-23" unicode="&#59395;"
                   d="M890.24 613.12a32 32 0 0 1-43.52 11.52l-192-108.8-131.84 78.72-167.04-96v-192l166.4-96.64 167.04 96V460.8l192 108.8a32 32 0 0 1 8.96 43.52zM624.64 342.4l-102.4-58.88-102.4 59.52V461.44l103.04 58.88 102.4-59.52zM521.6-60.15999999999997L121.6 171.51999999999998V633.6L522.88 864l173.44-100.48a32 32 0 0 0-32-55.68L522.88 790.4l-336.64-192v-388.48l336-192 336.64 192V370.55999999999995a32 32 0 0 0 32 32 32 32 0 0 0 32-32v-200.32z"
                   horiz-adv-x="1024"/>


            <glyph glyph-name="wulumuqishigongandashujuguanlipingtai-ico-24" unicode="&#59396;"
                   d="M273.92 364.15999999999997a32 32 0 0 0-21.12 55.68 88.32 88.32 0 1 1-117.76 131.84 32 32 0 0 0-42.88 48 152.32 152.32 0 0 0 203.52-227.84 32 32 0 0 0-21.76-7.68zM926.72 96.63999999999999l-205.44 506.24a118.4 118.4 0 0 1-6.4 31.36 119.04 119.04 0 0 1-16 29.44l-3.2 4.48a116.48 116.48 0 0 1-23.68 23.04 118.4 118.4 0 0 1-17.92 12.8L640 708.48a116.48 116.48 0 0 1-35.84 5.76h-5.12a117.76 117.76 0 0 1-35.84-6.4l-16.64-7.68-282.24-77.44A149.12 149.12 0 0 0 345.6 486.4l157.44-5.76 68.48-401.92a32 32 0 0 1 31.36-26.88H896a32 32 0 0 1 29.44 44.16zM332.8 551.04L320 572.1600000000001l165.76 46.08a117.12 117.12 0 0 1 4.48-64 113.92 113.92 0 0 1 5.76-10.88zM551.68 576a55.04 55.04 0 0 0 33.28 69.76h23.04a53.12 53.12 0 0 0 14.72-3.2l7.68-2.56 8.96-6.4 5.76-5.12a55.04 55.04 0 0 0 8.96-14.72v-3.84a53.76 53.76 0 0 0-33.92-64A55.04 55.04 0 0 0 551.68 576z m78.72-461.44l-64 366.08A117.12 117.12 0 0 1 688.64 512l161.28-397.44z"
                   horiz-adv-x="1024"/>


            <glyph glyph-name="wulumuqishigongandashujuguanlipingtai-ico-25" unicode="&#59397;"
                   d="M704 369.91999999999996H545.92V538.24a32 32 0 0 1-64 0v-200.32a32 32 0 0 1 32-32h192a32 32 0 1 1 0 64zM512 704a366.08 366.08 0 1 1 366.08-366.08A366.08 366.08 0 0 1 512 704z m0-668.16a302.08 302.08 0 1 0 302.08 302.08A302.08 302.08 0 0 0 512 35.84000000000003zM791.68 653.44a32 32 0 0 1 35.84 50.56l-90.24 64a32 32 0 1 1-35.2-53.12zM218.88 648.3199999999999a32 32 0 0 1 17.92 5.12l90.24 60.16A32 32 0 0 1 291.2 768L200.96 704a32 32 0 0 1 17.92-58.88z"
                   horiz-adv-x="1024"/>


            <glyph glyph-name="wulumuqishigongandashujuguanlipingtai-ico-26" unicode="&#59398;"
                   d="M979.2 134.39999999999998l-134.4 77.44v-45.44h-93.44A217.6 217.6 0 0 0 533.76 384a282.24 282.24 0 0 1-281.6 281.6H178.56v45.44L44.8 633.6l134.4-77.44V601.6h72.96A217.6 217.6 0 0 0 469.76 384a282.24 282.24 0 0 1 281.6-281.6h94.08v-45.44zM461.44 197.12a343.68 343.68 0 0 0-31.36 64 216.96 216.96 0 0 0-177.92-94.72H178.56v45.44L44.8 134.39999999999998l134.4-77.44v45.44h72.96a279.68 279.68 0 0 1 209.28 94.72zM972.8 633.6l-134.4 77.44v-45.44h-87.04a279.68 279.68 0 0 1-209.92-95.36 342.4 342.4 0 0 0 31.36-64 216.96 216.96 0 0 0 178.56 95.36h87.04v-45.44z"
                   horiz-adv-x="1024"/>


        </font>
</defs>
</svg>
